<?xml version="1.0" encoding="UTF-8" standalone="no"?>
<svg
   xmlns:dc="http://purl.org/dc/elements/1.1/"
   xmlns:cc="http://creativecommons.org/ns#"
   xmlns:rdf="http://www.w3.org/1999/02/22-rdf-syntax-ns#"
   xmlns:svg="http://www.w3.org/2000/svg"
   xmlns="http://www.w3.org/2000/svg"
   xmlns:sodipodi="http://sodipodi.sourceforge.net/DTD/sodipodi-0.dtd"
   xmlns:inkscape="http://www.inkscape.org/namespaces/inkscape"
   width="210mm"
   height="297mm"
   viewBox="0 0 210 297"
   version="1.1"
   id="svg8"
   inkscape:version="1.0.1 (3bc2e813f5, 2020-09-07)"
   sodipodi:docname="frame0.svg">
  <defs
     id="defs2" />
  <sodipodi:namedview
     id="base"
     pagecolor="#ffffff"
     bordercolor="#666666"
     borderopacity="1.0"
     inkscape:pageopacity="0.0"
     inkscape:pageshadow="2"
     inkscape:zoom="0.88050974"
     inkscape:cx="493.07461"
     inkscape:cy="364.14154"
     inkscape:document-units="mm"
     inkscape:current-layer="layer1"
     inkscape:document-rotation="0"
     showgrid="false"
     inkscape:window-width="1920"
     inkscape:window-height="1016"
     inkscape:window-x="0"
     inkscape:window-y="0"
     inkscape:window-maximized="1" />
  <metadata
     id="metadata5">
    <rdf:RDF>
      <cc:Work
         rdf:about="">
        <dc:format>image/svg+xml</dc:format>
        <dc:type
           rdf:resource="http://purl.org/dc/dcmitype/StillImage" />
        <dc:title></dc:title>
      </cc:Work>
    </rdf:RDF>
  </metadata>
  <g
     inkscape:label="Ebene 1"
     inkscape:groupmode="layer"
     id="layer1">
    <g
       id="g852"
       style="opacity:1;fill:none;stroke:#4e9a06;stroke-width:0.970785"
       transform="matrix(1.0232442,0,0,1.0369902,94.103638,39.278349)">
      <path
         style="color:#000000;font-style:normal;font-variant:normal;font-weight:normal;font-stretch:normal;font-size:medium;line-height:normal;font-family:sans-serif;font-variant-ligatures:normal;font-variant-position:normal;font-variant-caps:normal;font-variant-numeric:normal;font-variant-alternates:normal;font-variant-east-asian:normal;font-feature-settings:normal;font-variation-settings:normal;text-indent:0;text-align:start;text-decoration:none;text-decoration-line:none;text-decoration-style:solid;text-decoration-color:#000000;letter-spacing:normal;word-spacing:normal;text-transform:none;writing-mode:lr-tb;direction:ltr;text-orientation:mixed;dominant-baseline:auto;baseline-shift:baseline;text-anchor:start;white-space:normal;shape-padding:0;shape-margin:0;inline-size:0;clip-rule:nonzero;display:inline;overflow:visible;visibility:visible;isolation:auto;mix-blend-mode:normal;color-interpolation:sRGB;color-interpolation-filters:linearRGB;solid-color:#000000;solid-opacity:1;vector-effect:none;fill:none;fill-opacity:1;fill-rule:nonzero;stroke:#4e9a06;stroke-width:0.242696;stroke-linecap:butt;stroke-linejoin:miter;stroke-miterlimit:4;stroke-dasharray:1.94157, 0.970784;stroke-dashoffset:0;stroke-opacity:1;color-rendering:auto;image-rendering:auto;shape-rendering:auto;text-rendering:auto;enable-background:accumulate;stop-color:#000000;stop-opacity:1"
         d="m -49.875,0.125 h 99.75 v 49.75 h -99.75 z"
         id="path854" />
      <path
         style="color:#000000;font-style:normal;font-variant:normal;font-weight:normal;font-stretch:normal;font-size:medium;line-height:normal;font-family:sans-serif;font-variant-ligatures:normal;font-variant-position:normal;font-variant-caps:normal;font-variant-numeric:normal;font-variant-alternates:normal;font-variant-east-asian:normal;font-feature-settings:normal;font-variation-settings:normal;text-indent:0;text-align:start;text-decoration:none;text-decoration-line:none;text-decoration-style:solid;text-decoration-color:#000000;letter-spacing:normal;word-spacing:normal;text-transform:none;writing-mode:lr-tb;direction:ltr;text-orientation:mixed;dominant-baseline:auto;baseline-shift:baseline;text-anchor:start;white-space:normal;shape-padding:0;shape-margin:0;inline-size:0;clip-rule:nonzero;display:inline;overflow:visible;visibility:visible;isolation:auto;mix-blend-mode:normal;color-interpolation:sRGB;color-interpolation-filters:linearRGB;solid-color:#000000;solid-opacity:1;vector-effect:none;fill:none;fill-opacity:1;fill-rule:nonzero;stroke:#4e9a06;stroke-width:0.242696;stroke-linecap:butt;stroke-linejoin:miter;stroke-miterlimit:4;stroke-dasharray:1.94157, 0.970784;stroke-dashoffset:0;stroke-opacity:1;color-rendering:auto;image-rendering:auto;shape-rendering:auto;text-rendering:auto;enable-background:accumulate;stop-color:#000000;stop-opacity:1"
         d="M -49.875,0 V 0.125 H -50 v 2 h 0.25 V 0.25 h 1.875 V 0 Z m 3,0 v 0.25 h 2 V 0 Z m 3,0 v 0.25 h 2 V 0 Z m 3,0 v 0.25 h 2 V 0 Z m 3,0 v 0.25 h 2 V 0 Z m 3,0 v 0.25 h 2 V 0 Z m 3,0 v 0.25 h 2 V 0 Z m 3,0 v 0.25 h 2 V 0 Z m 3,0 v 0.25 h 2 V 0 Z m 3,0 v 0.25 h 2 V 0 Z m 3,0 v 0.25 h 2 V 0 Z m 3,0 v 0.25 h 2 V 0 Z m 3,0 v 0.25 h 2 V 0 Z m 3,0 v 0.25 h 2 V 0 Z m 3,0 v 0.25 h 2 V 0 Z m 3,0 v 0.25 h 2 V 0 Z m 3,0 v 0.25 h 2 V 0 Z m 3,0 v 0.25 h 2 V 0 Z m 3,0 v 0.25 h 2 V 0 Z m 3,0 v 0.25 h 2 V 0 Z m 3,0 v 0.25 h 2 V 0 Z m 3,0 v 0.25 h 2 V 0 Z m 3,0 v 0.25 h 2 V 0 Z m 3,0 v 0.25 h 2 V 0 Z m 3,0 v 0.25 h 2 V 0 Z m 3,0 v 0.25 h 2 V 0 Z m 3,0 v 0.25 h 2 V 0 Z m 3,0 v 0.25 h 2 V 0 Z m 3,0 v 0.25 h 2 V 0 Z m 3,0 v 0.25 h 2 V 0 Z m 3,0 v 0.25 h 2 V 0 Z m 3,0 v 0.25 h 2 V 0 Z m 3,0 v 0.25 h 2 V 0 Z m 3,0 V 0.25 H 49.75 V 1.375 H 50 V 0 Z m 0.625,2.375 v 2 H 50 v -2 z M -50,3.125 v 2 h 0.25 v -2 z m 99.75,2.25 v 2 H 50 v -2 z M -50,6.125 v 2 h 0.25 v -2 z m 99.75,2.25 v 2 H 50 v -2 z M -50,9.125 v 2 h 0.25 v -2 z m 99.75,2.25 v 2 H 50 v -2 z M -50,12.125 v 2 h 0.25 v -2 z m 99.75,2.25 v 2 H 50 v -2 z M -50,15.125 v 2 h 0.25 v -2 z m 99.75,2.25 v 2 H 50 v -2 z M -50,18.125 v 2 h 0.25 v -2 z m 99.75,2.25 v 2 H 50 v -2 z M -50,21.125 v 2 h 0.25 v -2 z m 99.75,2.25 v 2 H 50 v -2 z M -50,24.125 v 2 h 0.25 v -2 z m 99.75,2.25 v 2 H 50 v -2 z M -50,27.125 v 2 h 0.25 v -2 z m 99.75,2.25 v 2 H 50 v -2 z M -50,30.125 v 2 h 0.25 v -2 z m 99.75,2.25 v 2 H 50 v -2 z M -50,33.125 v 2 h 0.25 v -2 z m 99.75,2.25 v 2 H 50 v -2 z M -50,36.125 v 2 h 0.25 v -2 z m 99.75,2.25 v 2 H 50 v -2 z M -50,39.125 v 2 h 0.25 v -2 z m 99.75,2.25 v 2 H 50 v -2 z M -50,42.125 v 2 h 0.25 v -2 z m 99.75,2.25 v 2 H 50 v -2 z M -50,45.125 v 2 h 0.25 v -2 z m 99.75,2.25 v 2 H 50 v -2 z M -50,48.125 V 50 h 0.375 v -0.25 h -0.125 v -1.625 z m 1.375,1.625 V 50 h 2 v -0.25 z m 3,0 V 50 h 2 v -0.25 z m 3,0 V 50 h 2 v -0.25 z m 3,0 V 50 h 2 v -0.25 z m 3,0 V 50 h 2 v -0.25 z m 3,0 V 50 h 2 v -0.25 z m 3,0 V 50 h 2 v -0.25 z m 3,0 V 50 h 2 v -0.25 z m 3,0 V 50 h 2 v -0.25 z m 3,0 V 50 h 2 v -0.25 z m 3,0 V 50 h 2 v -0.25 z m 3,0 V 50 h 2 v -0.25 z m 3,0 V 50 h 2 v -0.25 z m 3,0 V 50 h 2 v -0.25 z m 3,0 V 50 h 2 v -0.25 z m 3,0 V 50 h 2 v -0.25 z m 3,0 V 50 h 2 v -0.25 z m 3,0 V 50 h 2 v -0.25 z m 3,0 V 50 h 2 v -0.25 z m 3,0 V 50 h 2 v -0.25 z m 3,0 V 50 h 2 v -0.25 z m 3,0 V 50 h 2 v -0.25 z m 3,0 V 50 h 2 v -0.25 z m 3,0 V 50 h 2 v -0.25 z m 3,0 V 50 h 2 v -0.25 z m 3,0 V 50 h 2 v -0.25 z m 3,0 V 50 h 2 v -0.25 z m 3,0 V 50 h 2 v -0.25 z m 3,0 V 50 h 2 v -0.25 z m 3,0 V 50 h 2 v -0.25 z m 3,0 V 50 h 2 v -0.25 z m 3,0 V 50 h 2 v -0.25 z m 3,0 V 50 h 2 v -0.25 z"
         id="path856" />
    </g>
    <text
       xml:space="preserve"
       style="font-style:normal;font-variant:normal;font-weight:normal;font-stretch:normal;font-size:10.5833px;line-height:110%;font-family:Sans;font-variant-ligatures:normal;font-variant-position:normal;font-variant-caps:normal;font-variant-numeric:normal;font-variant-alternates:normal;font-feature-settings:normal;text-indent:0;text-align:start;text-decoration:none;text-decoration-line:none;text-decoration-style:solid;text-decoration-color:#000000;letter-spacing:0px;word-spacing:0px;text-transform:none;writing-mode:lr-tb;direction:ltr;text-orientation:mixed;dominant-baseline:auto;baseline-shift:baseline;text-anchor:start;white-space:normal;shape-padding:0;opacity:1;vector-effect:none;fill:#000000;fill-opacity:1;stroke:none;stroke-width:0.264583px;stroke-linecap:butt;stroke-linejoin:miter;stroke-miterlimit:4;stroke-dasharray:none;stroke-dashoffset:0;stroke-opacity:1"
       x="71.866127"
       y="101.24831"
       id="text860"><tspan
         sodipodi:role="line"
         id="tspan858"
         x="71.866127"
         y="101.24831"
         style="stroke-width:0.264583px">0,1,0</tspan></text>
    <text
       xml:space="preserve"
       style="font-style:normal;font-variant:normal;font-weight:normal;font-stretch:normal;font-size:10.5833px;line-height:110%;font-family:Sans;font-variant-ligatures:normal;font-variant-position:normal;font-variant-caps:normal;font-variant-numeric:normal;font-variant-alternates:normal;font-feature-settings:normal;text-indent:0;text-align:start;text-decoration:none;text-decoration-line:none;text-decoration-style:solid;text-decoration-color:#000000;letter-spacing:0px;word-spacing:0px;text-transform:none;writing-mode:lr-tb;direction:ltr;text-orientation:mixed;dominant-baseline:auto;baseline-shift:baseline;text-anchor:start;white-space:normal;shape-padding:0;opacity:1;vector-effect:none;fill:#000000;fill-opacity:1;stroke:none;stroke-width:0.264583px;stroke-linecap:butt;stroke-linejoin:miter;stroke-miterlimit:4;stroke-dasharray:none;stroke-dashoffset:0;stroke-opacity:1"
       x="33.083118"
       y="101.03233"
       id="text864"><tspan
         sodipodi:role="line"
         id="tspan862"
         x="33.083118"
         y="101.03233"
         style="stroke-width:0.264583px">0,5,0</tspan></text>
    <text
       xml:space="preserve"
       style="font-style:normal;font-variant:normal;font-weight:normal;font-stretch:normal;font-size:10.5833px;line-height:110%;font-family:Sans;font-variant-ligatures:normal;font-variant-position:normal;font-variant-caps:normal;font-variant-numeric:normal;font-variant-alternates:normal;font-feature-settings:normal;text-indent:0;text-align:start;text-decoration:none;text-decoration-line:none;text-decoration-style:solid;text-decoration-color:#000000;letter-spacing:0px;word-spacing:0px;text-transform:none;writing-mode:lr-tb;direction:ltr;text-orientation:mixed;dominant-baseline:auto;baseline-shift:baseline;text-anchor:start;white-space:normal;shape-padding:0;opacity:1;vector-effect:none;fill:#000000;fill-opacity:1;stroke:none;stroke-width:0.264583px;stroke-linecap:butt;stroke-linejoin:miter;stroke-miterlimit:4;stroke-dasharray:none;stroke-dashoffset:0;stroke-opacity:1"
       x="33.007996"
       y="34.590263"
       id="text868"><tspan
         sodipodi:role="line"
         id="tspan866"
         x="33.007996"
         y="34.590263"
         style="stroke-width:0.264583px">0,5,5</tspan></text>
    <text
       xml:space="preserve"
       style="font-style:normal;font-variant:normal;font-weight:normal;font-stretch:normal;font-size:10.5833px;line-height:110%;font-family:Sans;font-variant-ligatures:normal;font-variant-position:normal;font-variant-caps:normal;font-variant-numeric:normal;font-variant-alternates:normal;font-feature-settings:normal;text-indent:0;text-align:start;text-decoration:none;text-decoration-line:none;text-decoration-style:solid;text-decoration-color:#000000;letter-spacing:0px;word-spacing:0px;text-transform:none;writing-mode:lr-tb;direction:ltr;text-orientation:mixed;dominant-baseline:auto;baseline-shift:baseline;text-anchor:start;white-space:normal;shape-padding:0;opacity:1;vector-effect:none;fill:#000000;fill-opacity:1;stroke:none;stroke-width:0.264583px;stroke-linecap:butt;stroke-linejoin:miter;stroke-miterlimit:4;stroke-dasharray:none;stroke-dashoffset:0;stroke-opacity:1"
       x="131.97093"
       y="34.590263"
       id="text872"><tspan
         sodipodi:role="line"
         id="tspan870"
         x="131.97093"
         y="34.590263"
         style="stroke-width:0.264583px">0,-5,5</tspan></text>
    <text
       xml:space="preserve"
       style="font-style:normal;font-variant:normal;font-weight:normal;font-stretch:normal;font-size:10.5833px;line-height:110%;font-family:Sans;font-variant-ligatures:normal;font-variant-position:normal;font-variant-caps:normal;font-variant-numeric:normal;font-variant-alternates:normal;font-feature-settings:normal;text-indent:0;text-align:start;text-decoration:none;text-decoration-line:none;text-decoration-style:solid;text-decoration-color:#000000;letter-spacing:0px;word-spacing:0px;text-transform:none;writing-mode:lr-tb;direction:ltr;text-orientation:mixed;dominant-baseline:auto;baseline-shift:baseline;text-anchor:start;white-space:normal;shape-padding:0;opacity:1;vector-effect:none;fill:#000000;fill-opacity:1;stroke:none;stroke-width:0.264583px;stroke-linecap:butt;stroke-linejoin:miter;stroke-miterlimit:4;stroke-dasharray:none;stroke-dashoffset:0;stroke-opacity:1"
       x="129.65271"
       y="101.03233"
       id="text876"><tspan
         sodipodi:role="line"
         id="tspan874"
         x="129.65271"
         y="101.03233"
         style="stroke-width:0.264583px">0,-5,0</tspan></text>
    <ellipse
       style="color:#000000;overflow:visible;fill:#4e9a06;fill-opacity:1;stroke:#73d216;stroke-width:0.25;stroke-dasharray:2, 1;stop-color:#000000"
       id="path878"
       cx="94.816429"
       cy="89.153351"
       rx="3.5"
       ry="0.125" />
    <g
       id="g902"
       style="opacity:1;fill:#8ae234;stroke:#4e9a06;stroke-width:1.67051"
       transform="matrix(0.37382409,0,0,0.95859317,64.67195,41.218515)">
      <path
         style="color:#000000;font-style:normal;font-variant:normal;font-weight:normal;font-stretch:normal;font-size:medium;line-height:normal;font-family:sans-serif;font-variant-ligatures:normal;font-variant-position:normal;font-variant-caps:normal;font-variant-numeric:normal;font-variant-alternates:normal;font-variant-east-asian:normal;font-feature-settings:normal;font-variation-settings:normal;text-indent:0;text-align:start;text-decoration:none;text-decoration-line:none;text-decoration-style:solid;text-decoration-color:#000000;letter-spacing:normal;word-spacing:normal;text-transform:none;writing-mode:lr-tb;direction:ltr;text-orientation:mixed;dominant-baseline:auto;baseline-shift:baseline;text-anchor:start;white-space:normal;shape-padding:0;shape-margin:0;inline-size:0;clip-rule:nonzero;display:inline;overflow:visible;visibility:visible;isolation:auto;mix-blend-mode:normal;color-interpolation:sRGB;color-interpolation-filters:linearRGB;solid-color:#000000;solid-opacity:1;vector-effect:none;fill:#8ae234;fill-opacity:1;fill-rule:nonzero;stroke:#4e9a06;stroke-width:0.417628;stroke-linecap:butt;stroke-linejoin:miter;stroke-miterlimit:4;stroke-dasharray:3.34102, 1.67051;stroke-dashoffset:0;stroke-opacity:1;color-rendering:auto;image-rendering:auto;shape-rendering:auto;text-rendering:auto;enable-background:accumulate;stop-color:#000000;stop-opacity:1"
         d="m -49.875,0.125 h 99.75 v 49.75 h -99.75 z"
         id="path898" />
      <path
         style="color:#000000;font-style:normal;font-variant:normal;font-weight:normal;font-stretch:normal;font-size:medium;line-height:normal;font-family:sans-serif;font-variant-ligatures:normal;font-variant-position:normal;font-variant-caps:normal;font-variant-numeric:normal;font-variant-alternates:normal;font-variant-east-asian:normal;font-feature-settings:normal;font-variation-settings:normal;text-indent:0;text-align:start;text-decoration:none;text-decoration-line:none;text-decoration-style:solid;text-decoration-color:#000000;letter-spacing:normal;word-spacing:normal;text-transform:none;writing-mode:lr-tb;direction:ltr;text-orientation:mixed;dominant-baseline:auto;baseline-shift:baseline;text-anchor:start;white-space:normal;shape-padding:0;shape-margin:0;inline-size:0;clip-rule:nonzero;display:inline;overflow:visible;visibility:visible;isolation:auto;mix-blend-mode:normal;color-interpolation:sRGB;color-interpolation-filters:linearRGB;solid-color:#000000;solid-opacity:1;vector-effect:none;fill:#8ae234;fill-opacity:1;fill-rule:nonzero;stroke:#4e9a06;stroke-width:0.417628;stroke-linecap:butt;stroke-linejoin:miter;stroke-miterlimit:4;stroke-dasharray:3.34102, 1.67051;stroke-dashoffset:0;stroke-opacity:1;color-rendering:auto;image-rendering:auto;shape-rendering:auto;text-rendering:auto;enable-background:accumulate;stop-color:#000000;stop-opacity:1"
         d="M -49.875,0 V 0.125 H -50 v 2 h 0.25 V 0.25 h 1.875 V 0 Z m 3,0 v 0.25 h 2 V 0 Z m 3,0 v 0.25 h 2 V 0 Z m 3,0 v 0.25 h 2 V 0 Z m 3,0 v 0.25 h 2 V 0 Z m 3,0 v 0.25 h 2 V 0 Z m 3,0 v 0.25 h 2 V 0 Z m 3,0 v 0.25 h 2 V 0 Z m 3,0 v 0.25 h 2 V 0 Z m 3,0 v 0.25 h 2 V 0 Z m 3,0 v 0.25 h 2 V 0 Z m 3,0 v 0.25 h 2 V 0 Z m 3,0 v 0.25 h 2 V 0 Z m 3,0 v 0.25 h 2 V 0 Z m 3,0 v 0.25 h 2 V 0 Z m 3,0 v 0.25 h 2 V 0 Z m 3,0 v 0.25 h 2 V 0 Z m 3,0 v 0.25 h 2 V 0 Z m 3,0 v 0.25 h 2 V 0 Z m 3,0 v 0.25 h 2 V 0 Z m 3,0 v 0.25 h 2 V 0 Z m 3,0 v 0.25 h 2 V 0 Z m 3,0 v 0.25 h 2 V 0 Z m 3,0 v 0.25 h 2 V 0 Z m 3,0 v 0.25 h 2 V 0 Z m 3,0 v 0.25 h 2 V 0 Z m 3,0 v 0.25 h 2 V 0 Z m 3,0 v 0.25 h 2 V 0 Z m 3,0 v 0.25 h 2 V 0 Z m 3,0 v 0.25 h 2 V 0 Z m 3,0 v 0.25 h 2 V 0 Z m 3,0 v 0.25 h 2 V 0 Z m 3,0 v 0.25 h 2 V 0 Z m 3,0 V 0.25 H 49.75 V 1.375 H 50 V 0 Z m 0.625,2.375 v 2 H 50 v -2 z M -50,3.125 v 2 h 0.25 v -2 z m 99.75,2.25 v 2 H 50 v -2 z M -50,6.125 v 2 h 0.25 v -2 z m 99.75,2.25 v 2 H 50 v -2 z M -50,9.125 v 2 h 0.25 v -2 z m 99.75,2.25 v 2 H 50 v -2 z M -50,12.125 v 2 h 0.25 v -2 z m 99.75,2.25 v 2 H 50 v -2 z M -50,15.125 v 2 h 0.25 v -2 z m 99.75,2.25 v 2 H 50 v -2 z M -50,18.125 v 2 h 0.25 v -2 z m 99.75,2.25 v 2 H 50 v -2 z M -50,21.125 v 2 h 0.25 v -2 z m 99.75,2.25 v 2 H 50 v -2 z M -50,24.125 v 2 h 0.25 v -2 z m 99.75,2.25 v 2 H 50 v -2 z M -50,27.125 v 2 h 0.25 v -2 z m 99.75,2.25 v 2 H 50 v -2 z M -50,30.125 v 2 h 0.25 v -2 z m 99.75,2.25 v 2 H 50 v -2 z M -50,33.125 v 2 h 0.25 v -2 z m 99.75,2.25 v 2 H 50 v -2 z M -50,36.125 v 2 h 0.25 v -2 z m 99.75,2.25 v 2 H 50 v -2 z M -50,39.125 v 2 h 0.25 v -2 z m 99.75,2.25 v 2 H 50 v -2 z M -50,42.125 v 2 h 0.25 v -2 z m 99.75,2.25 v 2 H 50 v -2 z M -50,45.125 v 2 h 0.25 v -2 z m 99.75,2.25 v 2 H 50 v -2 z M -50,48.125 V 50 h 0.375 v -0.25 h -0.125 v -1.625 z m 1.375,1.625 V 50 h 2 v -0.25 z m 3,0 V 50 h 2 v -0.25 z m 3,0 V 50 h 2 v -0.25 z m 3,0 V 50 h 2 v -0.25 z m 3,0 V 50 h 2 v -0.25 z m 3,0 V 50 h 2 v -0.25 z m 3,0 V 50 h 2 v -0.25 z m 3,0 V 50 h 2 v -0.25 z m 3,0 V 50 h 2 v -0.25 z m 3,0 V 50 h 2 v -0.25 z m 3,0 V 50 h 2 v -0.25 z m 3,0 V 50 h 2 v -0.25 z m 3,0 V 50 h 2 v -0.25 z m 3,0 V 50 h 2 v -0.25 z m 3,0 V 50 h 2 v -0.25 z m 3,0 V 50 h 2 v -0.25 z m 3,0 V 50 h 2 v -0.25 z m 3,0 V 50 h 2 v -0.25 z m 3,0 V 50 h 2 v -0.25 z m 3,0 V 50 h 2 v -0.25 z m 3,0 V 50 h 2 v -0.25 z m 3,0 V 50 h 2 v -0.25 z m 3,0 V 50 h 2 v -0.25 z m 3,0 V 50 h 2 v -0.25 z m 3,0 V 50 h 2 v -0.25 z m 3,0 V 50 h 2 v -0.25 z m 3,0 V 50 h 2 v -0.25 z m 3,0 V 50 h 2 v -0.25 z m 3,0 V 50 h 2 v -0.25 z m 3,0 V 50 h 2 v -0.25 z m 3,0 V 50 h 2 v -0.25 z m 3,0 V 50 h 2 v -0.25 z m 3,0 V 50 h 2 v -0.25 z"
         id="path900" />
    </g>
    <g
       id="g908"
       style="opacity:1;fill:#4e9a06;stroke:#4e9a06;stroke-width:1.33288"
       transform="matrix(0.58720024,0,0,0.95859317,113.34076,41.218515)">
      <path
         style="color:#000000;font-style:normal;font-variant:normal;font-weight:normal;font-stretch:normal;font-size:medium;line-height:normal;font-family:sans-serif;font-variant-ligatures:normal;font-variant-position:normal;font-variant-caps:normal;font-variant-numeric:normal;font-variant-alternates:normal;font-variant-east-asian:normal;font-feature-settings:normal;font-variation-settings:normal;text-indent:0;text-align:start;text-decoration:none;text-decoration-line:none;text-decoration-style:solid;text-decoration-color:#000000;letter-spacing:normal;word-spacing:normal;text-transform:none;writing-mode:lr-tb;direction:ltr;text-orientation:mixed;dominant-baseline:auto;baseline-shift:baseline;text-anchor:start;white-space:normal;shape-padding:0;shape-margin:0;inline-size:0;clip-rule:nonzero;display:inline;overflow:visible;visibility:visible;isolation:auto;mix-blend-mode:normal;color-interpolation:sRGB;color-interpolation-filters:linearRGB;solid-color:#000000;solid-opacity:1;vector-effect:none;fill:#4e9a06;fill-opacity:1;fill-rule:nonzero;stroke:#4e9a06;stroke-width:0.333219;stroke-linecap:butt;stroke-linejoin:miter;stroke-miterlimit:4;stroke-dasharray:2.66575, 1.33288000000000006;stroke-dashoffset:0;stroke-opacity:1;color-rendering:auto;image-rendering:auto;shape-rendering:auto;text-rendering:auto;enable-background:accumulate;stop-color:#000000;stop-opacity:1"
         d="m -49.875,0.125 h 99.75 v 49.75 h -99.75 z"
         id="path904" />
      <path
         style="color:#000000;font-style:normal;font-variant:normal;font-weight:normal;font-stretch:normal;font-size:medium;line-height:normal;font-family:sans-serif;font-variant-ligatures:normal;font-variant-position:normal;font-variant-caps:normal;font-variant-numeric:normal;font-variant-alternates:normal;font-variant-east-asian:normal;font-feature-settings:normal;font-variation-settings:normal;text-indent:0;text-align:start;text-decoration:none;text-decoration-line:none;text-decoration-style:solid;text-decoration-color:#000000;letter-spacing:normal;word-spacing:normal;text-transform:none;writing-mode:lr-tb;direction:ltr;text-orientation:mixed;dominant-baseline:auto;baseline-shift:baseline;text-anchor:start;white-space:normal;shape-padding:0;shape-margin:0;inline-size:0;clip-rule:nonzero;display:inline;overflow:visible;visibility:visible;isolation:auto;mix-blend-mode:normal;color-interpolation:sRGB;color-interpolation-filters:linearRGB;solid-color:#000000;solid-opacity:1;vector-effect:none;fill:#4e9a06;fill-opacity:1;fill-rule:nonzero;stroke:#4e9a06;stroke-width:0.333219;stroke-linecap:butt;stroke-linejoin:miter;stroke-miterlimit:4;stroke-dasharray:2.66575, 1.33288000000000006;stroke-dashoffset:0;stroke-opacity:1;color-rendering:auto;image-rendering:auto;shape-rendering:auto;text-rendering:auto;enable-background:accumulate;stop-color:#000000;stop-opacity:1"
         d="M -49.875,0 V 0.125 H -50 v 2 h 0.25 V 0.25 h 1.875 V 0 Z m 3,0 v 0.25 h 2 V 0 Z m 3,0 v 0.25 h 2 V 0 Z m 3,0 v 0.25 h 2 V 0 Z m 3,0 v 0.25 h 2 V 0 Z m 3,0 v 0.25 h 2 V 0 Z m 3,0 v 0.25 h 2 V 0 Z m 3,0 v 0.25 h 2 V 0 Z m 3,0 v 0.25 h 2 V 0 Z m 3,0 v 0.25 h 2 V 0 Z m 3,0 v 0.25 h 2 V 0 Z m 3,0 v 0.25 h 2 V 0 Z m 3,0 v 0.25 h 2 V 0 Z m 3,0 v 0.25 h 2 V 0 Z m 3,0 v 0.25 h 2 V 0 Z m 3,0 v 0.25 h 2 V 0 Z m 3,0 v 0.25 h 2 V 0 Z m 3,0 v 0.25 h 2 V 0 Z m 3,0 v 0.25 h 2 V 0 Z m 3,0 v 0.25 h 2 V 0 Z m 3,0 v 0.25 h 2 V 0 Z m 3,0 v 0.25 h 2 V 0 Z m 3,0 v 0.25 h 2 V 0 Z m 3,0 v 0.25 h 2 V 0 Z m 3,0 v 0.25 h 2 V 0 Z m 3,0 v 0.25 h 2 V 0 Z m 3,0 v 0.25 h 2 V 0 Z m 3,0 v 0.25 h 2 V 0 Z m 3,0 v 0.25 h 2 V 0 Z m 3,0 v 0.25 h 2 V 0 Z m 3,0 v 0.25 h 2 V 0 Z m 3,0 v 0.25 h 2 V 0 Z m 3,0 v 0.25 h 2 V 0 Z m 3,0 V 0.25 H 49.75 V 1.375 H 50 V 0 Z m 0.625,2.375 v 2 H 50 v -2 z M -50,3.125 v 2 h 0.25 v -2 z m 99.75,2.25 v 2 H 50 v -2 z M -50,6.125 v 2 h 0.25 v -2 z m 99.75,2.25 v 2 H 50 v -2 z M -50,9.125 v 2 h 0.25 v -2 z m 99.75,2.25 v 2 H 50 v -2 z M -50,12.125 v 2 h 0.25 v -2 z m 99.75,2.25 v 2 H 50 v -2 z M -50,15.125 v 2 h 0.25 v -2 z m 99.75,2.25 v 2 H 50 v -2 z M -50,18.125 v 2 h 0.25 v -2 z m 99.75,2.25 v 2 H 50 v -2 z M -50,21.125 v 2 h 0.25 v -2 z m 99.75,2.25 v 2 H 50 v -2 z M -50,24.125 v 2 h 0.25 v -2 z m 99.75,2.25 v 2 H 50 v -2 z M -50,27.125 v 2 h 0.25 v -2 z m 99.75,2.25 v 2 H 50 v -2 z M -50,30.125 v 2 h 0.25 v -2 z m 99.75,2.25 v 2 H 50 v -2 z M -50,33.125 v 2 h 0.25 v -2 z m 99.75,2.25 v 2 H 50 v -2 z M -50,36.125 v 2 h 0.25 v -2 z m 99.75,2.25 v 2 H 50 v -2 z M -50,39.125 v 2 h 0.25 v -2 z m 99.75,2.25 v 2 H 50 v -2 z M -50,42.125 v 2 h 0.25 v -2 z m 99.75,2.25 v 2 H 50 v -2 z M -50,45.125 v 2 h 0.25 v -2 z m 99.75,2.25 v 2 H 50 v -2 z M -50,48.125 V 50 h 0.375 v -0.25 h -0.125 v -1.625 z m 1.375,1.625 V 50 h 2 v -0.25 z m 3,0 V 50 h 2 v -0.25 z m 3,0 V 50 h 2 v -0.25 z m 3,0 V 50 h 2 v -0.25 z m 3,0 V 50 h 2 v -0.25 z m 3,0 V 50 h 2 v -0.25 z m 3,0 V 50 h 2 v -0.25 z m 3,0 V 50 h 2 v -0.25 z m 3,0 V 50 h 2 v -0.25 z m 3,0 V 50 h 2 v -0.25 z m 3,0 V 50 h 2 v -0.25 z m 3,0 V 50 h 2 v -0.25 z m 3,0 V 50 h 2 v -0.25 z m 3,0 V 50 h 2 v -0.25 z m 3,0 V 50 h 2 v -0.25 z m 3,0 V 50 h 2 v -0.25 z m 3,0 V 50 h 2 v -0.25 z m 3,0 V 50 h 2 v -0.25 z m 3,0 V 50 h 2 v -0.25 z m 3,0 V 50 h 2 v -0.25 z m 3,0 V 50 h 2 v -0.25 z m 3,0 V 50 h 2 v -0.25 z m 3,0 V 50 h 2 v -0.25 z m 3,0 V 50 h 2 v -0.25 z m 3,0 V 50 h 2 v -0.25 z m 3,0 V 50 h 2 v -0.25 z m 3,0 V 50 h 2 v -0.25 z m 3,0 V 50 h 2 v -0.25 z m 3,0 V 50 h 2 v -0.25 z m 3,0 V 50 h 2 v -0.25 z m 3,0 V 50 h 2 v -0.25 z m 3,0 V 50 h 2 v -0.25 z m 3,0 V 50 h 2 v -0.25 z"
         id="path906" />
    </g>
  </g>
</svg>
